<svg xmlns="http://www.w3.org/2000/svg" xmlns:xlink="http://www.w3.org/1999/xlink" viewBox="0,0,256,256" width="64px" height="64px"><defs><linearGradient x1="41.018" y1="26" x2="45.176" y2="26" gradientUnits="userSpaceOnUse" id="color-1"><stop offset="0" stop-color="#b03535"></stop><stop offset="1" stop-color="#cf5b46"></stop></linearGradient></defs><g fill="none" fill-rule="nonzero" stroke="none" stroke-width="1" stroke-linecap="butt" stroke-linejoin="miter" stroke-miterlimit="10" stroke-dasharray="" stroke-dashoffset="0" font-family="none" font-weight="none" font-size="none" text-anchor="none" style="mix-blend-mode: normal"><g transform="scale(5.33333,5.33333)"><path d="M43,11h-3v30h3c1.105,0 2,-0.895 2,-2v-26c0,-1.105 -0.895,-2 -2,-2z" fill="url(#color-1)"></path><path d="M41,39v-30c0,-1.105 -0.895,-2 -2,-2h-34c-1.105,0 -2,0.895 -2,2v30c0,1.105 0.895,2 2,2h38c-1.105,0 -2,-0.895 -2,-2z" fill="#ff4848"></path><path d="M37,17h-30c-0.552,0 -1,-0.448 -1,-1v-2c0,-0.552 0.448,-1 1,-1h30c0.552,0 1,0.448 1,1v2c0,0.552 -0.448,1 -1,1z" fill="#ffffff"></path><path d="M19,36h-12c-0.552,0 -1,-0.448 -1,-1v-13c0,-0.552 0.448,-1 1,-1h12c0.552,0 1,0.448 1,1v13c0,0.552 -0.448,1 -1,1z" fill="#ffffff"></path><path d="M38,24h-14v-2c0,-0.552 0.448,-1 1,-1h12c0.552,0 1,0.448 1,1z" fill="#ffffff"></path><rect x="24" y="24" width="14" height="3" fill="#fff1e6"></rect><rect x="24" y="27" width="14" height="3" fill="#ffdbcc"></rect><rect x="24" y="30" width="14" height="3" fill="#ffbfb3"></rect><path d="M37,36h-12c-0.552,0 -1,-0.448 -1,-1v-2h14v2c0,0.552 -0.448,1 -1,1z" fill="#ff9a9a"></path></g></g></svg>